<svg xmlns="http://www.w3.org/2000/svg" width="76.798" height="49.248" viewBox="0 0 76.798 49.248">
  <path id="Path_10" data-name="Path 10" d="M75.64,101.688a14.9,14.9,0,0,1-7.486-1.919,14.116,14.116,0,0,1-5.415-5.586,17.8,17.8,0,0,1-2.033-8.759,26.734,26.734,0,0,1,3.382-13.319,34.841,34.841,0,0,1,9.006-10.431,43.35,43.35,0,0,1,12.521-6.821A41.7,41.7,0,0,1,99.466,52.44v2.85a38.294,38.294,0,0,0-12.624,2.227A41.336,41.336,0,0,0,75.09,63.865a31.948,31.948,0,0,0-8.522,9.829,23.72,23.72,0,0,0-2.93,12.627h-2.7a9.258,9.258,0,0,1,2.349-6.451,14.808,14.808,0,0,1,5.824-3.918,19.145,19.145,0,0,1,6.832-1.321q6.916,0,10.678,3.8a13.036,13.036,0,0,1,1.767,16.093,15.637,15.637,0,0,1-5.358,5.168A14.22,14.22,0,0,1,75.64,101.688Zm-38.038,0A15.008,15.008,0,0,1,30.1,99.769a13.95,13.95,0,0,1-5.415-5.586,17.936,17.936,0,0,1-2.014-8.759A26.734,26.734,0,0,1,26.05,72.105a34.841,34.841,0,0,1,9.006-10.431,43.35,43.35,0,0,1,12.521-6.821A41.7,41.7,0,0,1,61.428,52.44v2.85A38.294,38.294,0,0,0,48.8,57.517a41.336,41.336,0,0,0-11.752,6.348,31.948,31.948,0,0,0-8.522,9.829A23.72,23.72,0,0,0,25.6,86.321H22.9A9.258,9.258,0,0,1,25.25,79.87a14.808,14.808,0,0,1,5.824-3.918,19.145,19.145,0,0,1,6.832-1.321q6.916,0,10.678,3.8a13.036,13.036,0,0,1,1.767,16.093,15.637,15.637,0,0,1-5.358,5.168A14.22,14.22,0,0,1,37.6,101.688Z" transform="translate(-22.668 -52.44)" fill="#ddc586"/>
</svg>
