<svg xmlns="http://www.w3.org/2000/svg" width="76.798" height="49.248" viewBox="0 0 76.798 49.248">
  <path id="Path_11" data-name="Path 11" d="M48.2,94.088v-2.85a38.294,38.294,0,0,0,12.624-2.227,41.336,41.336,0,0,0,11.752-6.348A31.948,31.948,0,0,0,81.1,72.834a23.72,23.72,0,0,0,2.93-12.627h2.7a9.259,9.259,0,0,1-2.349,6.449,14.8,14.8,0,0,1-5.824,3.919A19.145,19.145,0,0,1,71.72,71.9q-6.878,0-10.659-3.8a13.063,13.063,0,0,1-1.786-16.131A15.19,15.19,0,0,1,64.633,46.8a14.431,14.431,0,0,1,7.391-1.957,15.008,15.008,0,0,1,7.5,1.919,14.011,14.011,0,0,1,5.415,5.548,17.884,17.884,0,0,1,2.014,8.8,26.765,26.765,0,0,1-3.382,13.3,34.757,34.757,0,0,1-9.006,10.45,43.412,43.412,0,0,1-12.5,6.821A41.641,41.641,0,0,1,48.2,94.088Zm-38.038,0v-2.85a38.294,38.294,0,0,0,12.624-2.227,41.336,41.336,0,0,0,11.752-6.348,31.948,31.948,0,0,0,8.522-9.829,23.72,23.72,0,0,0,2.93-12.627h2.7a9.259,9.259,0,0,1-2.349,6.449,14.8,14.8,0,0,1-5.824,3.919,19.145,19.145,0,0,1-6.832,1.32q-6.878,0-10.659-3.8a13.063,13.063,0,0,1-1.786-16.131A15.19,15.19,0,0,1,26.6,46.8a14.431,14.431,0,0,1,7.391-1.957,15.008,15.008,0,0,1,7.505,1.919,14.011,14.011,0,0,1,5.415,5.548,17.884,17.884,0,0,1,2.014,8.8,26.765,26.765,0,0,1-3.382,13.3,34.757,34.757,0,0,1-9.006,10.45,43.412,43.412,0,0,1-12.5,6.821A41.641,41.641,0,0,1,10.16,94.088Z" transform="translate(-10.16 -44.84)" fill="#ddc586"/>
</svg>
